<svg width="21" height="22" viewBox="0 0 25 26" fill="none" xmlns="http://www.w3.org/2000/svg">
    <g clip-path="url(#clip0_63_14111)">
        <path d="M18.431 12.9998C18.4281 12.066 18.328 11.1351 18.1324 10.222H20.6324C20.5036 9.84115 20.3481 9.46985 20.1671 9.11089H17.8407C17.4034 7.64982 16.7251 6.27207 15.8338 5.03451C15.2643 4.79506 14.6706 4.6181 14.0629 4.50673C15.284 5.8187 16.2057 7.38012 16.7643 9.08312H13.0213V4.38867H11.9796V9.09006H8.23654C8.79632 7.38398 9.72045 5.82006 10.9449 4.50673C10.3399 4.61624 9.74846 4.79087 9.18099 5.02756C8.28617 6.25994 7.60318 7.63295 7.16016 9.09006H4.81988C4.63555 9.45557 4.47774 9.83386 4.34766 10.222H6.86849C6.67286 11.1351 6.57278 12.066 6.56988 12.9998C6.5718 14.0212 6.68827 15.0391 6.9171 16.0345H4.45877C4.60243 16.4238 4.77418 16.8021 4.97266 17.1664H7.21571C7.64086 18.4969 8.27113 19.7527 9.08377 20.8887C9.66569 21.1383 10.2736 21.3223 10.8963 21.4373C9.76288 20.201 8.89124 18.7483 8.33377 17.1664H11.9865V21.5692H13.0282V17.1664H16.6671C16.1077 18.7489 15.2337 20.2017 14.0977 21.4373C14.7232 21.3183 15.3335 21.1296 15.9171 20.8748C16.7285 19.7431 17.3587 18.492 17.7852 17.1664H20.0074C20.2049 16.8088 20.3767 16.4375 20.5213 16.0553H18.056C18.2957 15.0542 18.4215 14.0292 18.431 12.9998ZM11.9796 16.0345H7.99349C7.50458 14.1233 7.48314 12.1224 7.93099 10.2012H11.9796V16.0345ZM17.0074 16.0345H13.0213V10.222H17.0699C17.2694 11.1343 17.3672 12.0659 17.3615 12.9998C17.3672 14.022 17.2483 15.0411 17.0074 16.0345Z" fill="white"/>
        <path d="M12.4998 1.88867C10.3022 1.88867 8.154 2.54033 6.32679 3.76123C4.49957 4.98214 3.07543 6.71745 2.23446 8.74774C1.39349 10.778 1.17345 13.0121 1.60217 15.1675C2.0309 17.3228 3.08913 19.3026 4.64305 20.8565C6.19696 22.4104 8.17677 23.4687 10.3321 23.8974C12.4875 24.3261 14.7215 24.1061 16.7518 23.2651C18.7821 22.4241 20.5174 21 21.7383 19.1728C22.9592 17.3456 23.6109 15.1974 23.6109 12.9998C23.6109 10.0529 22.4403 7.22678 20.3565 5.14304C18.2728 3.0593 15.4466 1.88867 12.4998 1.88867ZM12.4998 22.722C10.5769 22.722 8.69722 22.1518 7.09841 21.0835C5.4996 20.0152 4.25348 18.4968 3.51763 16.7203C2.78177 14.9438 2.58924 12.989 2.96438 11.1031C3.33951 9.21715 4.26546 7.48481 5.62514 6.12513C6.98482 4.76546 8.71715 3.8395 10.6031 3.46437C12.489 3.08924 14.4438 3.28177 16.2203 4.01762C17.9968 4.75347 19.5152 5.99959 20.5835 7.59841C21.6518 9.19722 22.222 11.0769 22.222 12.9998C22.222 15.5783 21.1977 18.0512 19.3744 19.8744C17.5512 21.6977 15.0783 22.722 12.4998 22.722Z" fill="white"/>
    </g>
    <defs>
        <clipPath id="clip0_63_14111">
            <rect width="25" height="25" fill="white" transform="translate(0 0.5)"/>
        </clipPath>
    </defs>
</svg>
